<svg width="202" height="207" viewBox="0 0 202 207" fill="none" xmlns="http://www.w3.org/2000/svg">
<path d="M109.417 155.25C109.417 160.013 105.648 163.875 101 163.875C96.3516 163.875 92.5833 160.013 92.5833 155.25C92.5833 150.487 96.3516 146.625 101 146.625C105.648 146.625 109.417 150.487 109.417 155.25Z" fill="black"/>
<path fill-rule="evenodd" clip-rule="evenodd" d="M101 17.25C104.057 17.25 106.873 18.9482 108.357 21.6863L192.524 176.936C193.972 179.608 193.933 182.865 192.421 185.499C190.908 188.133 188.149 189.75 185.167 189.75H16.8333C13.8511 189.75 11.0916 188.133 9.57925 185.499C8.0669 182.865 8.02756 179.608 9.47584 176.936L93.6425 21.6863C95.127 18.9482 97.9433 17.25 101 17.25ZM31.1376 172.5H170.862L101 43.635L31.1376 172.5ZM101 77.625C105.648 77.625 109.417 81.4865 109.417 86.25V120.75C109.417 125.513 105.648 129.375 101 129.375C96.3516 129.375 92.5833 125.513 92.5833 120.75V86.25C92.5833 81.4865 96.3516 77.625 101 77.625Z" fill="black"/>
</svg>
